PathFileType	4	(X/Y/Z)
DataRate	CameraRate	NumFrames	NumMarkers	Units	OrigDataRate	OrigDataStartFrame	OrigNumFrames
120	120	4	142	mm	120	277	553	
Frame#	Time	 STRN			 T1			 T8			 T10			 T12			 C7			 CLAV			 LANK			 RANK			 LANI			 RANI			 LASI			 RASI			 LPSI			 RPSI			 LSHO			 RSHO			 LTOE			 RTOE			 RHEE			 LHEE			 LKNE			 RKNE			 LKNI			 RKNI			 RIWR			 LIWR			 RELB			 LELB			 RELBIN			 LELBIN			 LOWR			 ROWR			 RCLAV			 LCLAV			 RFHD			 LBHD			 LFHD			 RBHD			 LMT1			 LMT5			 RMT1			 RMT5			 Tracking_L5			 Tracking_L4			 Tracking_L3			 Tracking_L2			 Tracking_L1			 Tracking_T11			 Tracking_T9			 Tracking_T7			 Tracking_T6			 Tracking_T5			 Tracking_T4			 Tracking_T3			 Tracking_T2			 rthumb			 rindex			 rmiddle			 rring			 rpinky			 lthumb			 lindex			 lmiddle			 lring			 lpinky			 ROOT			 Spine1			 Spine2			 Spine3			 LHIPJ			 RHIPJ			 LKJC			 RKJC			 LAJC			 RAJC			 LFOOT			 RFOOT			 NECK			 LCOL			 RCOL			 HEAD			 LSHOULDER			 RSHOULDER			 LELC			 RELC			 LWRIST			 RWRIST			 left_index1			 left_index2			 left_index3			 left_middle1			 left_middle2			 left_middle3			 left_pinky1			 left_pinky2			 left_pinky3			 left_ring1			 left_ring2			 left_ring3			 left_thumb1			 left_thumb2			 left_thumb3			 right_index1			 right_index2			 right_index3			 right_middle1			 right_middle2			 right_middle3			 right_pinky1			 right_pinky2			 right_pinky3			 right_ring1			 right_ring2			 right_ring3			 right_thumb1			 right_thumb2			 right_thumb3			 MASI			 MPSI			 MHIPJ			 CENTER			 Virtual_LWRIST			 Virtual_RWRIST			 Virtual_LAJC			 Virtual_RAJC			 Virtual_LKJC			 Virtual_RKJC			 Virtual_LELC			 Virtual_RELC			 Virtual_Ground_RAJC			 Virtual_Ground_LAJC			 Virtual_Ground_RFOOT			 Virtual_Ground_LFOOT			 Virtual_Ground_RTOE			 Virtual_Ground_LTOE			 Virtual_Ground_RMT1			 Virtual_Ground_LMT1			 Virtual_Ground_RMT5			 Virtual_Ground_LMT5			 Virtual_Ground_RHEE			 Virtual_Ground_LHEE		
		X1	Y1	Z1	X2	Y2	Z2	X3	Y3	Z3	X4	Y4	Z4	X5	Y5	Z5	X6	Y6	Z6	X7	Y7	Z7	X8	Y8	Z8	X9	Y9	Z9	X10	Y10	Z10	X11	Y11	Z11	X12	Y12	Z12	X13	Y13	Z13	X14	Y14	Z14	X15	Y15	Z15	X16	Y16	Z16	X17	Y17	Z17	X18	Y18	Z18	X19	Y19	Z19	X20	Y20	Z20	X21	Y21	Z21	X22	Y22	Z22	X23	Y23	Z23	X24	Y24	Z24	X25	Y25	Z25	X26	Y26	Z26	X27	Y27	Z27	X28	Y28	Z28	X29	Y29	Z29	X30	Y30	Z30	X31	Y31	Z31	X32	Y32	Z32	X33	Y33	Z33	X34	Y34	Z34	X35	Y35	Z35	X36	Y36	Z36	X37	Y37	Z37	X38	Y38	Z38	X39	Y39	Z39	X40	Y40	Z40	X41	Y41	Z41	X42	Y42	Z42	X43	Y43	Z43	X44	Y44	Z44	X45	Y45	Z45	X46	Y46	Z46	X47	Y47	Z47	X48	Y48	Z48	X49	Y49	Z49	X50	Y50	Z50	X51	Y51	Z51	X52	Y52	Z52	X53	Y53	Z53	X54	Y54	Z54	X55	Y55	Z55	X56	Y56	Z56	X57	Y57	Z57	X58	Y58	Z58	X59	Y59	Z59	X60	Y60	Z60	X61	Y61	Z61	X62	Y62	Z62	X63	Y63	Z63	X64	Y64	Z64	X65	Y65	Z65	X66	Y66	Z66	X67	Y67	Z67	X68	Y68	Z68	X69	Y69	Z69	X70	Y70	Z70	X71	Y71	Z71	X72	Y72	Z72	X73	Y73	Z73	X74	Y74	Z74	X75	Y75	Z75	X76	Y76	Z76	X77	Y77	Z77	X78	Y78	Z78	X79	Y79	Z79	X80	Y80	Z80	X81	Y81	Z81	X82	Y82	Z82	X83	Y83	Z83	X84	Y84	Z84	X85	Y85	Z85	X86	Y86	Z86	X87	Y87	Z87	X88	Y88	Z88	X89	Y89	Z89	X90	Y90	Z90	X91	Y91	Z91	X92	Y92	Z92	X93	Y93	Z93	X94	Y94	Z94	X95	Y95	Z95	X96	Y96	Z96	X97	Y97	Z97	X98	Y98	Z98	X99	Y99	Z99	X100	Y100	Z100	X101	Y101	Z101	X102	Y102	Z102	X103	Y103	Z103	X104	Y104	Z104	X105	Y105	Z105	X106	Y106	Z106	X107	Y107	Z107	X108	Y108	Z108	X109	Y109	Z109	X110	Y110	Z110	X111	Y111	Z111	X112	Y112	Z112	X113	Y113	Z113	X114	Y114	Z114	X115	Y115	Z115	X116	Y116	Z116	X117	Y117	Z117	X118	Y118	Z118	X119	Y119	Z119	X120	Y120	Z120	X121	Y121	Z121	X122	Y122	Z122	X123	Y123	Z123	X124	Y124	Z124	X125	Y125	Z125	X126	Y126	Z126	X127	Y127	Z127	X128	Y128	Z128	X129	Y129	Z129	X130	Y130	Z130	X131	Y131	Z131	X132	Y132	Z132	X133	Y133	Z133	X134	Y134	Z134	X135	Y135	Z135	X136	Y136	Z136	X137	Y137	Z137	X138	Y138	Z138	X139	Y139	Z139	X140	Y140	Z140	X141	Y141	Z141	X142	Y142	Z142

277	2.3000	424.876601	-462.193877	1165.645361	445.112377	-286.751360	1460.729122	445.744902	-192.498714	1272.284269	440.857053	-191.814303	1219.303012	436.338156	-198.058873	1164.945483	444.957912	-300.847173	1472.621322	429.745078	-423.945457	1374.526381	752.414644	-171.439230	140.446261	115.358979	-283.937633	95.170699	686.336517	-175.280660	145.341888	180.910319	-282.234877	108.224474	550.051093	-378.986925	910.609365	291.311175	-374.294370	911.432862	488.642782	-162.705377	994.926453	368.042082	-163.381279	998.861313	574.105859	-378.836900	1419.852853	298.539817	-352.739930	1426.097393	758.555949	-325.931877	29.932342	149.743885	-448.087007	1.978002	154.693365	-213.180184	42.658947	718.124151	-94.770253	93.234800	672.473609	-379.021943	502.915502	174.741328	-391.190499	500.329673	569.541752	-379.627079	465.245724	284.837782	-391.846955	469.138265	298.966914	-500.717938	1011.413574	564.013779	-490.671158	1014.083505	132.493466	-319.115281	1083.889842	752.193868	-327.623129	1087.182283	202.976406	-265.704125	1061.410427	690.093935	-262.504578	1063.288689	574.199200	-472.863257	957.358658	297.007978	-480.657607	951.823115	358.171582	-402.220160	1392.120719	506.506026	-415.894508	1386.437178	390.915811	-461.927384	1653.818369	510.392666	-349.249095	1683.589220	492.037028	-476.740777	1650.714397	410.341591	-332.171917	1684.612632	745.994866	-280.296832	63.241683	809.713244	-244.875401	69.507800	146.380752	-401.640326	31.956635	70.066005	-376.260012	22.732340	429.278851	-181.768671	1033.663988	430.189967	-191.944242	1058.221698	431.815028	-199.982196	1086.850643	432.352871	-202.574119	1112.680435	434.328526	-200.881615	1137.960434	438.429385	-194.804892	1191.580296	443.459243	-191.271126	1246.809363	446.932167	-195.696294	1295.220852	448.648870	-206.740439	1335.795045	448.465973	-219.695210	1367.857575	447.304249	-242.433995	1408.876181	446.654111	-257.622480	1430.612922	445.973843	-272.054613	1446.832776	424.285471	-569.923520	1017.019510	437.014073	-597.608805	977.567136	440.026611	-589.361846	950.794756	432.746083	-570.482373	939.902723	419.753045	-550.939202	920.717835	427.970499	-535.002291	1003.669024	411.954433	-548.190057	969.710529	409.854800	-541.283250	946.256757	425.027996	-524.167240	936.955869	443.967074	-511.929035	919.358909	424.675912	-299.761653	920.111060	430.993140	-263.251960	1047.317505	437.274218	-316.990018	1170.232177	435.250878	-336.176008	1219.884276	484.294742	-279.155970	837.861598	359.698921	-285.862803	831.019163	626.187265	-373.456627	495.422989	219.806254	-385.360539	490.242034	713.934302	-176.452994	128.536716	158.166528	-286.017746	88.928066	789.462388	-261.313587	45.556925	105.820507	-396.265745	6.837867	429.875851	-356.144130	1430.284739	510.942221	-354.357153	1333.083510	357.397288	-333.474457	1338.902354	439.110696	-409.273267	1508.101463	643.518150	-363.646656	1309.318781	233.621553	-339.533001	1323.378682	723.524392	-291.660458	1075.200915	165.957898	-287.234336	1073.089838	561.667442	-481.296927	977.853358	308.614969	-493.525207	973.208308	483.157545	-555.910587	978.325546	454.062074	-571.229041	974.092245	433.280647	-561.015785	971.456885	483.344704	-559.872210	953.116238	454.137176	-568.932295	943.714321	432.629883	-556.903899	942.159772	499.656796	-529.212058	917.148352	480.410546	-529.604673	910.338700	462.693900	-520.871997	911.472738	492.482334	-545.420766	931.668758	464.071006	-552.384913	926.985085	442.834318	-540.143430	928.772211	513.662577	-502.169430	997.882664	484.312534	-510.944009	1006.624699	462.586135	-527.348280	1008.610249	364.801288	-585.392654	982.720852	389.620036	-608.261943	978.928685	412.533253	-603.679955	976.515055	365.157485	-590.047300	955.855846	391.526341	-606.644392	947.843194	415.248424	-600.312829	947.291076	361.037642	-556.519806	917.863429	380.142182	-560.910046	912.243903	399.187088	-556.376278	914.494216	361.945748	-574.050188	932.715058	387.720227	-588.133633	928.735316	411.264092	-580.975294	931.144297	346.957654	-523.569882	1000.358343	374.404609	-537.190855	1010.911703	393.524200	-557.147682	1014.323354	420.681134	-376.640648	911.021113	428.342432	-163.043328	996.893883	421.996832	-282.509387	834.440380	424.511783	-269.841988	953.957498	569.106489	-481.767207	985.721081	297.987446	-490.687773	981.618345	719.375581	-173.359945	142.894074	148.134649	-283.086255	101.697586	621.007681	-379.324511	484.080613	229.789555	-391.518727	484.733969	721.143901	-295.063853	1075.235486	167.734936	-292.409703	1072.650135	148.134649	-739.163160	101.697586	719.375581	-739.163160	142.894074	105.820507	-739.163160	6.837867	789.462388	-739.163160	45.556925	149.743885	-739.163160	1.978002	758.555949	-739.163160	29.932342	146.380752	-739.163160	31.956635	745.994866	-739.163160	63.241683	70.066005	-739.163160	22.732340	809.713244	-739.163160	69.507800	154.693365	-739.163160	42.658947	718.124151	-739.163160	93.234800
278	2.3083	420.899123	-462.458909	1160.570025	438.975841	-286.421537	1455.568910	438.779771	-192.456305	1266.868472	433.812827	-191.900849	1214.056611	429.164857	-198.166445	1159.859300	438.981742	-300.587505	1467.608929	425.024271	-423.927903	1369.573474	735.421419	-166.529030	142.523408	112.486154	-281.958818	90.914726	669.574559	-172.010958	146.898508	177.913249	-279.535294	104.121804	543.863714	-378.834963	906.806827	284.881920	-377.267361	908.084273	480.371118	-162.361547	989.160240	359.672278	-164.505184	993.678391	568.888366	-377.227366	1414.691210	293.161273	-354.052931	1420.613647	746.838570	-322.006047	34.562707	148.197293	-448.083818	2.096653	150.985539	-211.786896	36.883652	700.308740	-90.704940	94.225407	664.531589	-385.942996	499.705553	168.386787	-392.966986	495.247662	561.550438	-388.201118	462.252676	278.716803	-392.536610	464.748830	292.762995	-500.671685	1001.952171	558.622658	-490.424156	1012.323499	125.731081	-321.382165	1079.019904	746.384025	-325.491130	1082.187295	195.574909	-267.185390	1056.413889	683.882594	-260.998696	1057.659268	568.593979	-473.336548	955.358863	290.118843	-479.678929	942.729890	353.213727	-402.947545	1387.005091	501.657903	-414.964855	1381.386638	385.551125	-462.111592	1648.694992	504.594445	-349.094659	1678.941011	486.720681	-476.631939	1645.815849	404.482514	-332.348257	1679.767013	732.601941	-276.193380	66.937864	795.458138	-239.204049	73.482156	144.526809	-400.890052	30.820489	67.900270	-376.397789	20.879447	421.309382	-181.860402	1028.452754	422.431558	-191.961259	1053.145051	424.268633	-199.978635	1081.863642	424.961537	-202.617228	1107.709050	427.019954	-200.972900	1132.974982	431.315720	-194.921166	1186.420202	436.458617	-191.297144	1241.466284	440.012634	-195.592046	1289.759517	441.844702	-206.514478	1330.303669	441.782981	-219.433039	1362.374306	440.821290	-242.149666	1403.429389	440.282971	-257.299513	1425.207257	439.708531	-271.726370	1441.515446	418.398559	-569.383442	1005.334139	430.911988	-596.383810	965.168357	433.644205	-587.619305	938.470781	426.202089	-568.610489	928.017676	412.875861	-548.695803	909.264505	422.461003	-534.774899	1003.080368	406.321675	-548.545122	969.344139	404.062241	-541.909218	945.689261	419.200152	-524.786770	936.048388	438.151449	-512.633801	918.196380	417.582482	-300.840586	915.694535	424.074203	-263.126671	1042.540312	431.596816	-317.251027	1165.215611	429.831356	-336.339116	1214.915276	476.617038	-280.347019	832.996786	352.070123	-288.426459	826.775551	618.195176	-381.066591	492.260039	213.210225	-386.811614	485.253751	697.164416	-172.171459	129.986346	155.392677	-283.425868	84.392309	776.029944	-256.528735	49.639940	103.916705	-396.530420	5.708694	424.513370	-355.981022	1425.347805	505.626678	-353.524864	1328.200459	351.868153	-334.233969	1333.873630	433.892131	-409.010261	1503.215432	638.228774	-361.827224	1304.217696	228.228807	-341.869891	1317.963719	717.534006	-289.838672	1069.862127	158.864737	-289.114743	1068.236709	556.037605	-481.530428	976.003706	302.012265	-492.812276	963.836491	477.511048	-556.110263	977.632582	448.395461	-571.467340	973.687351	427.606553	-561.278582	971.016169	477.599293	-560.359538	952.469587	448.353171	-569.517612	943.285108	426.843107	-557.501256	941.676795	493.779480	-530.117035	916.090846	474.506825	-530.581594	909.360826	456.796974	-521.831214	910.463870	486.657321	-546.156704	930.823147	458.226204	-553.165317	926.329613	436.999768	-540.897906	928.059161	508.105516	-502.158403	996.456146	478.787392	-510.823786	1005.411625	457.064688	-527.197778	1007.668734	358.703613	-584.569752	971.163332	383.592188	-607.247412	966.731846	406.461477	-602.513015	964.198828	358.839810	-588.730633	944.215357	385.211676	-605.052650	935.665548	408.898473	-598.599136	935.018480	354.224682	-554.533958	906.882048	373.297960	-558.729649	901.013196	392.341256	-554.147184	903.176665	355.346769	-572.328448	921.401143	381.148964	-586.213887	916.934788	404.680341	-578.988731	919.264972	340.735078	-523.165464	990.088999	368.338078	-536.846340	1000.146270	387.579143	-556.770921	1003.021359	414.372817	-378.051162	907.445550	420.021698	-163.433366	991.419315	414.343581	-284.386739	829.886168	417.197257	-270.742264	949.432433	563.608319	-481.880352	983.841181	291.440919	-490.175307	972.341031	702.497989	-169.269994	144.710958	145.199701	-280.747056	97.518265	613.041013	-387.072057	480.979115	223.551795	-392.751798	479.998246	715.133309	-293.244913	1069.923282	160.652995	-294.283777	1067.716897	145.199701	-739.163160	97.518265	702.497989	-739.163160	144.710958	103.916705	-739.163160	5.708694	776.029944	-739.163160	49.639940	148.197293	-739.163160	2.096653	746.838570	-739.163160	34.562707	144.526809	-739.163160	30.820489	732.601941	-739.163160	66.937864	67.900270	-739.163160	20.879447	795.458138	-739.163160	73.482156	150.985539	-739.163160	36.883652	700.308740	-739.163160	94.225407
279	2.3167	416.795671	-462.705761	1154.812574	433.048755	-286.160648	1449.737310	432.149827	-192.420051	1260.823131	427.133411	-191.966593	1208.212852	422.351271	-198.192075	1154.214621	433.195293	-300.416142	1461.930752	420.331299	-423.948586	1363.959789	717.539370	-161.778346	144.589394	110.673808	-280.152172	86.293250	651.994467	-168.730691	148.698181	175.941601	-277.215004	99.860936	537.635207	-378.836989	902.525783	278.269321	-379.931152	904.538393	472.429752	-161.958233	982.692540	351.643264	-165.331185	987.907231	563.798368	-375.716865	1408.808589	287.911743	-355.188549	1414.496779	733.180165	-317.423731	38.253997	147.788063	-448.098004	1.837584	148.698851	-210.659936	30.982349	681.576967	-86.469427	95.859736	656.462848	-393.057585	495.955259	161.875620	-394.941270	489.916325	553.365707	-396.750838	458.909005	272.475064	-393.879175	460.275173	286.591142	-500.682056	992.024720	552.981436	-490.113676	1009.847522	119.051747	-323.690951	1073.542118	740.400553	-323.507071	1076.276660	188.247576	-268.779933	1050.727844	677.504122	-259.624749	1051.256180	562.491059	-473.711699	952.634573	283.169895	-478.867412	933.155775	348.304212	-403.604954	1381.252170	496.882468	-414.127499	1375.669003	380.091995	-462.324202	1642.904878	498.816401	-349.110007	1673.689961	481.308907	-476.668090	1640.289426	398.665905	-332.590252	1674.302459	717.643797	-271.625191	69.995195	779.762208	-233.309105	76.641589	143.736467	-400.216579	29.294167	66.897206	-376.500458	18.372688	413.681120	-181.735903	1022.674441	415.010542	-191.747278	1047.525644	417.056054	-199.756965	1076.346517	417.909086	-202.481970	1102.205873	420.059919	-200.938731	1127.450705	424.568802	-194.989741	1180.683017	429.807693	-191.316500	1235.505939	433.410585	-195.501640	1283.661246	435.324222	-206.311896	1324.160337	435.367852	-219.201684	1356.233239	434.579313	-241.895393	1397.314310	434.140235	-257.003278	1419.132829	433.662593	-271.435022	1435.529232	412.577718	-568.789721	993.094444	424.822658	-595.168471	952.248991	427.223951	-585.940659	925.637543	419.581383	-566.820502	915.608466	405.882388	-546.592295	897.283554	416.887909	-534.963727	1002.387285	400.545806	-549.390137	968.932152	397.975773	-543.022394	945.079863	412.962466	-525.832176	935.044646	431.795865	-513.673842	916.863441	410.530359	-301.870853	910.840154	417.344242	-262.738764	1037.238717	426.029205	-317.495435	1159.556031	424.519151	-336.468846	1209.308028	468.948632	-281.744480	827.616274	344.448239	-290.995985	822.141469	610.088170	-388.790041	488.630652	206.468463	-388.623357	480.046004	679.436445	-167.900056	131.539613	153.746232	-281.125188	79.563946	760.998845	-251.310349	52.915487	103.229694	-396.807998	4.071626	419.269025	-355.858654	1419.765711	500.409245	-352.784842	1322.658300	346.474379	-334.921002	1328.221440	428.719610	-408.784717	1497.694850	633.009851	-360.112935	1298.352003	222.982496	-343.992770	1311.924815	711.375415	-288.159728	1063.669682	151.851729	-291.085899	1062.727451	550.001025	-481.693834	973.452926	295.393169	-492.220789	953.989625	471.761554	-556.528389	976.552725	442.669421	-572.029829	973.020852	421.821922	-561.943948	970.416784	471.652329	-561.049044	951.437175	442.362905	-570.409000	942.600787	420.796603	-558.486760	941.045940	487.414539	-531.144440	914.598465	468.087435	-531.749785	908.037841	450.355977	-523.050487	909.196973	480.475366	-547.049046	929.562747	452.032834	-554.206133	925.386727	430.777520	-541.995704	927.164376	502.318680	-502.268672	994.533122	473.108947	-510.940135	1003.830314	451.465517	-527.365327	1006.448269	352.616876	-583.792329	959.198117	377.569109	-606.265366	954.128265	400.385946	-601.372004	951.429665	352.483958	-587.509334	932.185411	378.843397	-603.552401	923.086822	402.489364	-596.966922	922.293425	347.297072	-552.728534	895.471931	366.326779	-556.728721	889.331520	385.369152	-552.084148	891.366839	348.663986	-570.753038	909.683108	374.485523	-584.429860	904.713392	398.004293	-577.122569	906.911016	334.547013	-522.800744	979.323685	362.324446	-536.502182	988.858938	381.694436	-556.371748	991.199791	407.952264	-379.384071	903.532088	412.036508	-163.644709	985.299885	406.698436	-286.370233	824.878871	409.994386	-271.514390	944.415987	557.736248	-481.912687	981.241047	284.880519	-489.774734	962.590247	684.766918	-165.254518	146.643788	143.307704	-278.683588	93.077093	604.914278	-394.904211	477.432132	217.175342	-394.410223	475.095749	708.952338	-291.565910	1063.766420	153.649662	-296.235442	1062.134981	143.307704	-739.163160	93.077093	684.766918	-739.163160	146.643788	103.229694	-739.163160	4.071626	760.998845	-739.163160	52.915487	147.788063	-739.163160	1.837584	733.180165	-739.163160	38.253997	143.736467	-739.163160	29.294167	717.643797	-739.163160	69.995195	66.897206	-739.163160	18.372688	779.762208	-739.163160	76.641589	148.698851	-739.163160	30.982349	681.576967	-739.163160	95.859736
280	2.3250	412.730753	-463.019967	1148.430943	427.362084	-286.026686	1443.370581	425.919682	-192.508027	1254.338384	420.928031	-192.113906	1202.002764	416.083246	-198.191896	1148.271203	427.620798	-300.373912	1455.713749	415.719181	-424.088895	1357.860565	698.987424	-157.735869	146.581128	109.554648	-277.596593	82.022093	633.775830	-165.906802	150.728896	174.681515	-274.727732	96.021853	531.434119	-378.945559	897.834659	271.504849	-381.754041	900.948822	465.278566	-161.437854	975.821435	344.399095	-165.585726	981.892943	558.893979	-374.312222	1402.393222	282.786191	-356.178343	1407.872915	717.592597	-312.729090	40.630601	146.936536	-446.711540	0.262997	147.726566	-208.609760	26.157638	662.136912	-82.534298	98.198734	648.152173	-400.485426	491.758853	155.393183	-397.078693	484.733164	544.834733	-405.271173	455.381602	266.263813	-396.128684	455.937505	280.395716	-500.774622	981.789470	547.682106	-489.700615	1007.094979	112.490207	-325.863093	1067.574143	734.685004	-321.294487	1069.923401	181.068435	-270.385712	1044.441581	671.336770	-258.138031	1044.402957	556.802750	-474.035323	949.648678	275.964618	-478.243709	923.274457	343.470216	-404.259056	1375.014901	492.252707	-413.448691	1369.482398	374.485344	-462.495744	1636.670470	492.937148	-349.146158	1668.058157	475.755990	-476.730645	1634.394050	392.759115	-332.811445	1668.372154	701.139271	-267.151475	72.158895	762.683213	-227.786943	78.808807	142.815530	-398.423880	26.912829	65.991372	-374.813557	15.206059	406.798273	-181.291565	1016.644716	408.295274	-191.234991	1041.664720	410.502225	-199.285403	1070.589900	411.475450	-202.165887	1096.447825	413.688004	-200.802520	1121.657729	418.334097	-195.091948	1174.616456	423.590600	-191.444233	1229.138613	427.182555	-195.539117	1277.099609	429.140747	-206.233814	1317.521930	429.261744	-219.098181	1349.587679	428.602844	-241.755590	1390.682697	428.248703	-256.812632	1412.544012	427.860349	-271.251231	1429.021120	407.081038	-567.611456	980.280638	419.069260	-593.383372	938.791156	421.020001	-583.722889	912.250221	413.020223	-564.506054	902.625978	398.797780	-544.071913	884.747982	411.589295	-534.782767	1001.342058	395.077616	-549.866676	968.181312	392.221600	-543.785632	944.100916	407.102436	-526.561022	933.663905	425.877362	-514.424026	915.158331	403.711468	-302.632362	905.710936	411.113948	-262.037605	1031.614184	420.717150	-317.774147	1153.419137	419.399321	-336.672068	1203.205347	461.482674	-283.124566	821.890235	337.003618	-293.126136	817.323983	601.747334	-396.674156	484.662384	199.807763	-390.864551	474.945098	660.933912	-164.142296	133.177772	152.845234	-278.407246	75.108550	744.393885	-246.208787	55.133007	102.493614	-395.414621	1.572809	414.175719	-355.839521	1413.684011	495.349616	-352.215648	1316.623807	341.268510	-335.621297	1322.067618	423.555553	-408.584684	1491.744280	627.937317	-358.417183	1291.936398	217.925847	-345.867604	1305.342674	705.434799	-286.288887	1057.019711	144.980878	-292.988122	1056.664586	544.372737	-481.822252	970.637202	288.607746	-491.781294	943.811178	466.271937	-556.728303	975.173414	437.177718	-572.310507	972.035825	416.296124	-562.284708	969.473302	465.982020	-561.534762	950.112402	436.641634	-571.036577	941.602528	415.046334	-559.163630	940.073550	481.423497	-532.029092	912.819028	462.048888	-532.736659	906.410515	444.313437	-524.050117	907.603264	474.620312	-547.772229	928.014755	446.158260	-555.016994	924.133360	424.898356	-542.817473	925.930977	496.880263	-502.223790	992.306292	467.753917	-510.830581	1001.919746	446.155548	-527.255774	1004.886270	346.828818	-582.819998	946.858525	371.936917	-604.953885	941.111207	394.663393	-599.783540	938.176692	346.362293	-586.133957	919.797063	372.756362	-601.764023	910.099745	396.320790	-594.921708	909.084320	340.316355	-550.863981	883.686543	359.299630	-554.573715	877.228260	378.319860	-549.762130	879.074216	342.062414	-569.083750	897.604167	367.951363	-582.415342	892.077982	391.422361	-574.897349	894.065559	328.416258	-522.327423	968.146026	356.460571	-535.880089	977.094769	376.062572	-555.579782	978.871882	401.469484	-380.349800	899.391741	404.838830	-163.511790	978.857189	399.243146	-288.125351	819.607109	403.154157	-271.930795	939.124465	552.242428	-481.867969	978.371829	278.180167	-489.509165	952.531964	666.381627	-161.821336	148.655012	142.118081	-276.162162	89.021973	596.493453	-402.878299	473.570228	210.828498	-396.603689	470.335335	703.010887	-289.716259	1057.163179	146.779321	-298.124403	1056.007862	142.118081	-739.163160	89.021973	666.381627	-739.163160	148.655012	102.493614	-739.163160	1.572809	744.393885	-739.163160	55.133007	146.936536	-739.163160	0.262997	717.592597	-739.163160	40.630601	142.815530	-739.163160	26.912829	701.139271	-739.163160	72.158895	65.991372	-739.163160	15.206059	762.683213	-739.163160	78.808807	147.726566	-739.163160	26.157638	662.136912	-739.163160	98.198734
